<svg xmlns="http://www.w3.org/2000/svg" viewBox="0 0 512 512" width="512" height="512">
<defs>
<radialGradient id="bg" cx="50%" cy="38%" r="75%">
<stop offset="0%" stop-color="#08140f"/><stop offset="55%" stop-color="#0a2620"/><stop offset="100%" stop-color="#06120f"/>
</radialGradient>
<radialGradient id="glow" cx="50%" cy="44%" r="42%">
<stop offset="0%" stop-color="#39d3b0" stop-opacity="0.95"/><stop offset="45%" stop-color="#39d3b0" stop-opacity="0.32"/><stop offset="100%" stop-color="#39d3b0" stop-opacity="0"/>
</radialGradient>
<linearGradient id="crest" x1="0" y1="0" x2="0" y2="1">
<stop offset="0%" stop-color="#fff" stop-opacity="0.9"/><stop offset="100%" stop-color="#39d3b0" stop-opacity="0.7"/>
</linearGradient>
<filter id="b"><feGaussianBlur stdDeviation="6"/></filter>
</defs>
<rect width="512" height="512" fill="url(#bg)"/>
<circle cx="226" cy="209" r="1" fill="#fff" opacity="0.7"/><circle cx="193" cy="351" r="1" fill="#fff" opacity="0.25"/><circle cx="500" cy="244" r="2" fill="#fff" opacity="0.55"/><circle cx="416" cy="259" r="1" fill="#fff" opacity="0.7"/><circle cx="159" cy="451" r="1" fill="#fff" opacity="0.7"/><circle cx="408" cy="310" r="1.5" fill="#fff" opacity="0.4"/><circle cx="304" cy="160" r="1.5" fill="#fff" opacity="0.25"/><circle cx="346" cy="286" r="2" fill="#fff" opacity="0.7"/><circle cx="411" cy="252" r="1" fill="#fff" opacity="0.4"/><circle cx="348" cy="424" r="1" fill="#fff" opacity="0.4"/><circle cx="315" cy="70" r="2" fill="#fff" opacity="0.55"/><circle cx="443" cy="190" r="1.5" fill="#fff" opacity="0.25"/><circle cx="154" cy="88" r="1.5" fill="#fff" opacity="0.7"/><circle cx="57" cy="129" r="1" fill="#fff" opacity="0.25"/><circle cx="412" cy="180" r="2" fill="#fff" opacity="0.7"/><circle cx="415" cy="81" r="1" fill="#fff" opacity="0.55"/><circle cx="119" cy="469" r="1" fill="#fff" opacity="0.55"/><circle cx="93" cy="270" r="1" fill="#fff" opacity="0.25"/><circle cx="183" cy="35" r="2" fill="#fff" opacity="0.55"/><circle cx="193" cy="327" r="1" fill="#fff" opacity="0.25"/><circle cx="463" cy="473" r="1" fill="#fff" opacity="0.25"/><circle cx="237" cy="422" r="1" fill="#fff" opacity="0.55"/><circle cx="191" cy="308" r="1" fill="#fff" opacity="0.4"/><circle cx="178" cy="202" r="1" fill="#fff" opacity="0.7"/><circle cx="200" cy="467" r="2" fill="#fff" opacity="0.7"/><circle cx="251" cy="379" r="1" fill="#fff" opacity="0.7"/><circle cx="110" cy="435" r="1.5" fill="#fff" opacity="0.55"/><circle cx="472" cy="206" r="1" fill="#fff" opacity="0.4"/><circle cx="42" cy="74" r="1" fill="#fff" opacity="0.25"/><circle cx="328" cy="297" r="2" fill="#fff" opacity="0.4"/><circle cx="298" cy="95" r="1" fill="#fff" opacity="0.7"/><circle cx="169" cy="280" r="1.5" fill="#fff" opacity="0.4"/><circle cx="335" cy="378" r="1" fill="#fff" opacity="0.7"/><circle cx="8" cy="338" r="1" fill="#fff" opacity="0.4"/><circle cx="216" cy="17" r="1" fill="#fff" opacity="0.55"/><circle cx="113" cy="148" r="1" fill="#fff" opacity="0.4"/><circle cx="295" cy="113" r="1.5" fill="#fff" opacity="0.25"/><circle cx="292" cy="296" r="2" fill="#fff" opacity="0.4"/><circle cx="55" cy="110" r="1" fill="#fff" opacity="0.25"/><circle cx="109" cy="240" r="2" fill="#fff" opacity="0.4"/><circle cx="462" cy="170" r="2" fill="#fff" opacity="0.7"/><circle cx="468" cy="185" r="2" fill="#fff" opacity="0.55"/><circle cx="424" cy="9" r="2" fill="#fff" opacity="0.7"/><circle cx="432" cy="72" r="1.5" fill="#fff" opacity="0.4"/><circle cx="90" cy="278" r="1.5" fill="#fff" opacity="0.25"/><circle cx="439" cy="267" r="2" fill="#fff" opacity="0.55"/>
<g opacity="0.9"><rect x="254" y="0" width="4" height="256" fill="#39d3b0" opacity="0.10" transform="rotate(0 256 256)"/><rect x="254" y="0" width="4" height="256" fill="#39d3b0" opacity="0.10" transform="rotate(15 256 256)"/><rect x="254" y="0" width="4" height="256" fill="#39d3b0" opacity="0.10" transform="rotate(30 256 256)"/><rect x="254" y="0" width="4" height="256" fill="#39d3b0" opacity="0.10" transform="rotate(45 256 256)"/><rect x="254" y="0" width="4" height="256" fill="#39d3b0" opacity="0.10" transform="rotate(60 256 256)"/><rect x="254" y="0" width="4" height="256" fill="#39d3b0" opacity="0.10" transform="rotate(75 256 256)"/><rect x="254" y="0" width="4" height="256" fill="#39d3b0" opacity="0.10" transform="rotate(90 256 256)"/><rect x="254" y="0" width="4" height="256" fill="#39d3b0" opacity="0.10" transform="rotate(105 256 256)"/><rect x="254" y="0" width="4" height="256" fill="#39d3b0" opacity="0.10" transform="rotate(120 256 256)"/><rect x="254" y="0" width="4" height="256" fill="#39d3b0" opacity="0.10" transform="rotate(135 256 256)"/><rect x="254" y="0" width="4" height="256" fill="#39d3b0" opacity="0.10" transform="rotate(150 256 256)"/><rect x="254" y="0" width="4" height="256" fill="#39d3b0" opacity="0.10" transform="rotate(165 256 256)"/><rect x="254" y="0" width="4" height="256" fill="#39d3b0" opacity="0.10" transform="rotate(180 256 256)"/><rect x="254" y="0" width="4" height="256" fill="#39d3b0" opacity="0.10" transform="rotate(195 256 256)"/><rect x="254" y="0" width="4" height="256" fill="#39d3b0" opacity="0.10" transform="rotate(210 256 256)"/><rect x="254" y="0" width="4" height="256" fill="#39d3b0" opacity="0.10" transform="rotate(225 256 256)"/><rect x="254" y="0" width="4" height="256" fill="#39d3b0" opacity="0.10" transform="rotate(240 256 256)"/><rect x="254" y="0" width="4" height="256" fill="#39d3b0" opacity="0.10" transform="rotate(255 256 256)"/><rect x="254" y="0" width="4" height="256" fill="#39d3b0" opacity="0.10" transform="rotate(270 256 256)"/><rect x="254" y="0" width="4" height="256" fill="#39d3b0" opacity="0.10" transform="rotate(285 256 256)"/><rect x="254" y="0" width="4" height="256" fill="#39d3b0" opacity="0.10" transform="rotate(300 256 256)"/><rect x="254" y="0" width="4" height="256" fill="#39d3b0" opacity="0.10" transform="rotate(315 256 256)"/><rect x="254" y="0" width="4" height="256" fill="#39d3b0" opacity="0.10" transform="rotate(330 256 256)"/><rect x="254" y="0" width="4" height="256" fill="#39d3b0" opacity="0.10" transform="rotate(345 256 256)"/></g>
<circle cx="256" cy="244" r="150" fill="url(#glow)"/>
<g fill="none" stroke="#39d3b0" opacity="0.55">
<circle cx="256" cy="244" r="150" stroke-width="2"/>
<circle cx="256" cy="244" r="122" stroke-width="1" stroke-dasharray="6 8"/>
<circle cx="256" cy="244" r="180" stroke-width="1" opacity="0.3"/>
</g>
<rect x="419.0" y="251.0" width="10" height="10" fill="#39d3b0" opacity="0.5" transform="rotate(0 424.0 256.0)"/><rect x="402.4" y="323.9" width="10" height="10" fill="#39d3b0" opacity="0.5" transform="rotate(25 407.4 328.9)"/><rect x="355.7" y="382.3" width="10" height="10" fill="#39d3b0" opacity="0.5" transform="rotate(50 360.7 387.3)"/><rect x="288.4" y="414.8" width="10" height="10" fill="#39d3b0" opacity="0.5" transform="rotate(75 293.4 419.8)"/><rect x="213.6" y="414.8" width="10" height="10" fill="#39d3b0" opacity="0.5" transform="rotate(100 218.6 419.8)"/><rect x="146.3" y="382.3" width="10" height="10" fill="#39d3b0" opacity="0.5" transform="rotate(125 151.3 387.3)"/><rect x="99.6" y="323.9" width="10" height="10" fill="#39d3b0" opacity="0.5" transform="rotate(150 104.6 328.9)"/><rect x="83.0" y="251.0" width="10" height="10" fill="#39d3b0" opacity="0.5" transform="rotate(175 88.0 256.0)"/><rect x="99.6" y="178.1" width="10" height="10" fill="#39d3b0" opacity="0.5" transform="rotate(200 104.6 183.1)"/><rect x="146.3" y="119.7" width="10" height="10" fill="#39d3b0" opacity="0.5" transform="rotate(225 151.3 124.7)"/><rect x="213.6" y="87.2" width="10" height="10" fill="#39d3b0" opacity="0.5" transform="rotate(250 218.6 92.2)"/><rect x="288.4" y="87.2" width="10" height="10" fill="#39d3b0" opacity="0.5" transform="rotate(275 293.4 92.2)"/><rect x="355.7" y="119.7" width="10" height="10" fill="#39d3b0" opacity="0.5" transform="rotate(300 360.7 124.7)"/><rect x="402.4" y="178.1" width="10" height="10" fill="#39d3b0" opacity="0.5" transform="rotate(325 407.4 183.1)"/>
<path d="M256 96 L300 130 L300 250 Q256 300 256 300 Q256 300 212 250 L212 130 Z" fill="url(#crest)" opacity="0.18"/>
<text x="256" y="300" font-size="200" text-anchor="middle" filter="url(#b)" opacity="0.55">☠️</text>
<text x="256" y="300" font-size="190" text-anchor="middle">☠️</text>
<rect x="0" y="0" width="512" height="512" fill="url(#bg)" opacity="0" />
<rect x="0" y="430" width="512" height="82" fill="#000" opacity="0.28"/>
<text x="256" y="476" font-family="serif" font-size="34" font-weight="700" text-anchor="middle" fill="#fff" opacity="0.92">不死の将軍</text>
<rect x="6" y="6" width="500" height="500" fill="none" stroke="#39d3b0" stroke-width="3" opacity="0.5" rx="10"/>
</svg>