<svg xmlns="http://www.w3.org/2000/svg" viewBox="0 0 512 512" width="512" height="512">
<defs>
<radialGradient id="bg" cx="50%" cy="38%" r="75%">
<stop offset="0%" stop-color="#2a0f1a"/><stop offset="55%" stop-color="#1a0b2e"/><stop offset="100%" stop-color="#0a0610"/>
</radialGradient>
<radialGradient id="glow" cx="50%" cy="44%" r="42%">
<stop offset="0%" stop-color="#7b3ff2" stop-opacity="0.95"/><stop offset="45%" stop-color="#7b3ff2" stop-opacity="0.32"/><stop offset="100%" stop-color="#7b3ff2" stop-opacity="0"/>
</radialGradient>
<linearGradient id="crest" x1="0" y1="0" x2="0" y2="1">
<stop offset="0%" stop-color="#fff" stop-opacity="0.9"/><stop offset="100%" stop-color="#7b3ff2" stop-opacity="0.7"/>
</linearGradient>
<filter id="b"><feGaussianBlur stdDeviation="6"/></filter>
</defs>
<rect width="512" height="512" fill="url(#bg)"/>
<circle cx="156" cy="96" r="1" fill="#fff" opacity="0.55"/><circle cx="19" cy="390" r="1.5" fill="#fff" opacity="0.55"/><circle cx="374" cy="478" r="2" fill="#fff" opacity="0.55"/><circle cx="304" cy="125" r="1.5" fill="#fff" opacity="0.4"/><circle cx="154" cy="128" r="1" fill="#fff" opacity="0.7"/><circle cx="485" cy="450" r="1.5" fill="#fff" opacity="0.25"/><circle cx="371" cy="341" r="1" fill="#fff" opacity="0.25"/><circle cx="167" cy="76" r="2" fill="#fff" opacity="0.7"/><circle cx="148" cy="240" r="2" fill="#fff" opacity="0.4"/><circle cx="376" cy="435" r="1" fill="#fff" opacity="0.25"/><circle cx="170" cy="53" r="1.5" fill="#fff" opacity="0.4"/><circle cx="467" cy="333" r="1" fill="#fff" opacity="0.55"/><circle cx="9" cy="93" r="1" fill="#fff" opacity="0.25"/><circle cx="495" cy="175" r="1" fill="#fff" opacity="0.25"/><circle cx="434" cy="434" r="2" fill="#fff" opacity="0.55"/><circle cx="145" cy="83" r="1" fill="#fff" opacity="0.4"/><circle cx="484" cy="56" r="1" fill="#fff" opacity="0.55"/><circle cx="182" cy="469" r="2" fill="#fff" opacity="0.4"/><circle cx="210" cy="57" r="1.5" fill="#fff" opacity="0.7"/><circle cx="401" cy="289" r="1" fill="#fff" opacity="0.7"/><circle cx="216" cy="487" r="1" fill="#fff" opacity="0.4"/><circle cx="72" cy="391" r="1.5" fill="#fff" opacity="0.25"/><circle cx="132" cy="408" r="1.5" fill="#fff" opacity="0.7"/><circle cx="9" cy="56" r="1" fill="#fff" opacity="0.7"/><circle cx="243" cy="28" r="1" fill="#fff" opacity="0.7"/><circle cx="376" cy="457" r="1.5" fill="#fff" opacity="0.25"/><circle cx="473" cy="27" r="2" fill="#fff" opacity="0.4"/><circle cx="483" cy="225" r="1" fill="#fff" opacity="0.55"/><circle cx="152" cy="265" r="1.5" fill="#fff" opacity="0.55"/><circle cx="302" cy="439" r="1" fill="#fff" opacity="0.7"/><circle cx="452" cy="310" r="1" fill="#fff" opacity="0.25"/><circle cx="424" cy="448" r="1" fill="#fff" opacity="0.25"/><circle cx="248" cy="376" r="1.5" fill="#fff" opacity="0.25"/><circle cx="470" cy="399" r="2" fill="#fff" opacity="0.4"/><circle cx="225" cy="431" r="1.5" fill="#fff" opacity="0.7"/><circle cx="294" cy="96" r="1" fill="#fff" opacity="0.25"/><circle cx="231" cy="280" r="1" fill="#fff" opacity="0.4"/><circle cx="477" cy="216" r="2" fill="#fff" opacity="0.7"/><circle cx="346" cy="187" r="1" fill="#fff" opacity="0.25"/><circle cx="396" cy="210" r="1.5" fill="#fff" opacity="0.25"/><circle cx="184" cy="478" r="1.5" fill="#fff" opacity="0.7"/><circle cx="36" cy="450" r="1" fill="#fff" opacity="0.25"/><circle cx="370" cy="248" r="1.5" fill="#fff" opacity="0.25"/><circle cx="461" cy="159" r="1" fill="#fff" opacity="0.55"/><circle cx="490" cy="201" r="1.5" fill="#fff" opacity="0.55"/><circle cx="49" cy="107" r="1" fill="#fff" opacity="0.55"/>
<g opacity="0.9"><rect x="254" y="0" width="4" height="256" fill="#7b3ff2" opacity="0.10" transform="rotate(0 256 256)"/><rect x="254" y="0" width="4" height="256" fill="#7b3ff2" opacity="0.10" transform="rotate(15 256 256)"/><rect x="254" y="0" width="4" height="256" fill="#7b3ff2" opacity="0.10" transform="rotate(30 256 256)"/><rect x="254" y="0" width="4" height="256" fill="#7b3ff2" opacity="0.10" transform="rotate(45 256 256)"/><rect x="254" y="0" width="4" height="256" fill="#7b3ff2" opacity="0.10" transform="rotate(60 256 256)"/><rect x="254" y="0" width="4" height="256" fill="#7b3ff2" opacity="0.10" transform="rotate(75 256 256)"/><rect x="254" y="0" width="4" height="256" fill="#7b3ff2" opacity="0.10" transform="rotate(90 256 256)"/><rect x="254" y="0" width="4" height="256" fill="#7b3ff2" opacity="0.10" transform="rotate(105 256 256)"/><rect x="254" y="0" width="4" height="256" fill="#7b3ff2" opacity="0.10" transform="rotate(120 256 256)"/><rect x="254" y="0" width="4" height="256" fill="#7b3ff2" opacity="0.10" transform="rotate(135 256 256)"/><rect x="254" y="0" width="4" height="256" fill="#7b3ff2" opacity="0.10" transform="rotate(150 256 256)"/><rect x="254" y="0" width="4" height="256" fill="#7b3ff2" opacity="0.10" transform="rotate(165 256 256)"/><rect x="254" y="0" width="4" height="256" fill="#7b3ff2" opacity="0.10" transform="rotate(180 256 256)"/><rect x="254" y="0" width="4" height="256" fill="#7b3ff2" opacity="0.10" transform="rotate(195 256 256)"/><rect x="254" y="0" width="4" height="256" fill="#7b3ff2" opacity="0.10" transform="rotate(210 256 256)"/><rect x="254" y="0" width="4" height="256" fill="#7b3ff2" opacity="0.10" transform="rotate(225 256 256)"/><rect x="254" y="0" width="4" height="256" fill="#7b3ff2" opacity="0.10" transform="rotate(240 256 256)"/><rect x="254" y="0" width="4" height="256" fill="#7b3ff2" opacity="0.10" transform="rotate(255 256 256)"/><rect x="254" y="0" width="4" height="256" fill="#7b3ff2" opacity="0.10" transform="rotate(270 256 256)"/><rect x="254" y="0" width="4" height="256" fill="#7b3ff2" opacity="0.10" transform="rotate(285 256 256)"/><rect x="254" y="0" width="4" height="256" fill="#7b3ff2" opacity="0.10" transform="rotate(300 256 256)"/><rect x="254" y="0" width="4" height="256" fill="#7b3ff2" opacity="0.10" transform="rotate(315 256 256)"/><rect x="254" y="0" width="4" height="256" fill="#7b3ff2" opacity="0.10" transform="rotate(330 256 256)"/><rect x="254" y="0" width="4" height="256" fill="#7b3ff2" opacity="0.10" transform="rotate(345 256 256)"/></g>
<circle cx="256" cy="244" r="150" fill="url(#glow)"/>
<g fill="none" stroke="#7b3ff2" opacity="0.55">
<circle cx="256" cy="244" r="150" stroke-width="2"/>
<circle cx="256" cy="244" r="122" stroke-width="1" stroke-dasharray="6 8"/>
<circle cx="256" cy="244" r="180" stroke-width="1" opacity="0.3"/>
</g>
<rect x="419.0" y="251.0" width="10" height="10" fill="#7b3ff2" opacity="0.5" transform="rotate(0 424.0 256.0)"/><rect x="402.4" y="323.9" width="10" height="10" fill="#7b3ff2" opacity="0.5" transform="rotate(25 407.4 328.9)"/><rect x="355.7" y="382.3" width="10" height="10" fill="#7b3ff2" opacity="0.5" transform="rotate(50 360.7 387.3)"/><rect x="288.4" y="414.8" width="10" height="10" fill="#7b3ff2" opacity="0.5" transform="rotate(75 293.4 419.8)"/><rect x="213.6" y="414.8" width="10" height="10" fill="#7b3ff2" opacity="0.5" transform="rotate(100 218.6 419.8)"/><rect x="146.3" y="382.3" width="10" height="10" fill="#7b3ff2" opacity="0.5" transform="rotate(125 151.3 387.3)"/><rect x="99.6" y="323.9" width="10" height="10" fill="#7b3ff2" opacity="0.5" transform="rotate(150 104.6 328.9)"/><rect x="83.0" y="251.0" width="10" height="10" fill="#7b3ff2" opacity="0.5" transform="rotate(175 88.0 256.0)"/><rect x="99.6" y="178.1" width="10" height="10" fill="#7b3ff2" opacity="0.5" transform="rotate(200 104.6 183.1)"/><rect x="146.3" y="119.7" width="10" height="10" fill="#7b3ff2" opacity="0.5" transform="rotate(225 151.3 124.7)"/><rect x="213.6" y="87.2" width="10" height="10" fill="#7b3ff2" opacity="0.5" transform="rotate(250 218.6 92.2)"/><rect x="288.4" y="87.2" width="10" height="10" fill="#7b3ff2" opacity="0.5" transform="rotate(275 293.4 92.2)"/><rect x="355.7" y="119.7" width="10" height="10" fill="#7b3ff2" opacity="0.5" transform="rotate(300 360.7 124.7)"/><rect x="402.4" y="178.1" width="10" height="10" fill="#7b3ff2" opacity="0.5" transform="rotate(325 407.4 183.1)"/>
<path d="M256 96 L300 130 L300 250 Q256 300 256 300 Q256 300 212 250 L212 130 Z" fill="url(#crest)" opacity="0.18"/>
<text x="256" y="300" font-size="200" text-anchor="middle" filter="url(#b)" opacity="0.55">🐲</text>
<text x="256" y="300" font-size="190" text-anchor="middle">🐲</text>
<rect x="0" y="0" width="512" height="512" fill="url(#bg)" opacity="0" />
<rect x="0" y="430" width="512" height="82" fill="#000" opacity="0.28"/>
<text x="256" y="476" font-family="serif" font-size="34" font-weight="700" text-anchor="middle" fill="#fff" opacity="0.92">黒竜王</text>
<rect x="6" y="6" width="500" height="500" fill="none" stroke="#7b3ff2" stroke-width="3" opacity="0.5" rx="10"/>
</svg>