<svg xmlns="http://www.w3.org/2000/svg" viewBox="0 0 512 512" width="512" height="512">
<defs>
<radialGradient id="bg" cx="50%" cy="38%" r="75%">
<stop offset="0%" stop-color="#0a1c22"/><stop offset="55%" stop-color="#0c2630"/><stop offset="100%" stop-color="#08120f"/>
</radialGradient>
<radialGradient id="glow" cx="50%" cy="44%" r="42%">
<stop offset="0%" stop-color="#46d4d8" stop-opacity="0.95"/><stop offset="45%" stop-color="#46d4d8" stop-opacity="0.32"/><stop offset="100%" stop-color="#46d4d8" stop-opacity="0"/>
</radialGradient>
<linearGradient id="crest" x1="0" y1="0" x2="0" y2="1">
<stop offset="0%" stop-color="#fff" stop-opacity="0.9"/><stop offset="100%" stop-color="#46d4d8" stop-opacity="0.7"/>
</linearGradient>
<filter id="b"><feGaussianBlur stdDeviation="6"/></filter>
</defs>
<rect width="512" height="512" fill="url(#bg)"/>
<circle cx="487" cy="436" r="1.5" fill="#fff" opacity="0.7"/><circle cx="332" cy="286" r="1.5" fill="#fff" opacity="0.4"/><circle cx="259" cy="441" r="1" fill="#fff" opacity="0.7"/><circle cx="233" cy="190" r="1" fill="#fff" opacity="0.55"/><circle cx="307" cy="334" r="1.5" fill="#fff" opacity="0.55"/><circle cx="135" cy="405" r="1.5" fill="#fff" opacity="0.25"/><circle cx="384" cy="470" r="2" fill="#fff" opacity="0.4"/><circle cx="308" cy="202" r="1.5" fill="#fff" opacity="0.4"/><circle cx="485" cy="197" r="1" fill="#fff" opacity="0.7"/><circle cx="53" cy="246" r="2" fill="#fff" opacity="0.55"/><circle cx="169" cy="65" r="1.5" fill="#fff" opacity="0.25"/><circle cx="499" cy="276" r="1.5" fill="#fff" opacity="0.4"/><circle cx="197" cy="490" r="1.5" fill="#fff" opacity="0.7"/><circle cx="200" cy="439" r="2" fill="#fff" opacity="0.4"/><circle cx="345" cy="501" r="1" fill="#fff" opacity="0.7"/><circle cx="29" cy="224" r="1.5" fill="#fff" opacity="0.7"/><circle cx="230" cy="456" r="2" fill="#fff" opacity="0.7"/><circle cx="96" cy="181" r="1" fill="#fff" opacity="0.4"/><circle cx="143" cy="443" r="1.5" fill="#fff" opacity="0.55"/><circle cx="289" cy="358" r="1.5" fill="#fff" opacity="0.4"/><circle cx="431" cy="154" r="1" fill="#fff" opacity="0.25"/><circle cx="455" cy="118" r="1" fill="#fff" opacity="0.25"/><circle cx="301" cy="367" r="1" fill="#fff" opacity="0.7"/><circle cx="203" cy="462" r="1" fill="#fff" opacity="0.25"/><circle cx="363" cy="456" r="2" fill="#fff" opacity="0.7"/><circle cx="96" cy="373" r="1" fill="#fff" opacity="0.7"/><circle cx="302" cy="350" r="1.5" fill="#fff" opacity="0.7"/><circle cx="161" cy="125" r="1" fill="#fff" opacity="0.7"/><circle cx="317" cy="65" r="1" fill="#fff" opacity="0.7"/><circle cx="290" cy="484" r="1" fill="#fff" opacity="0.4"/><circle cx="255" cy="246" r="1" fill="#fff" opacity="0.4"/><circle cx="400" cy="130" r="2" fill="#fff" opacity="0.7"/><circle cx="225" cy="251" r="1" fill="#fff" opacity="0.7"/><circle cx="135" cy="184" r="1" fill="#fff" opacity="0.7"/><circle cx="416" cy="136" r="1" fill="#fff" opacity="0.7"/><circle cx="307" cy="214" r="1.5" fill="#fff" opacity="0.55"/><circle cx="66" cy="163" r="1" fill="#fff" opacity="0.4"/><circle cx="58" cy="300" r="1" fill="#fff" opacity="0.25"/><circle cx="309" cy="397" r="1" fill="#fff" opacity="0.25"/><circle cx="390" cy="491" r="2" fill="#fff" opacity="0.7"/><circle cx="494" cy="331" r="1" fill="#fff" opacity="0.4"/><circle cx="343" cy="128" r="1.5" fill="#fff" opacity="0.4"/><circle cx="441" cy="44" r="1.5" fill="#fff" opacity="0.55"/><circle cx="351" cy="501" r="1" fill="#fff" opacity="0.25"/><circle cx="16" cy="399" r="1" fill="#fff" opacity="0.25"/><circle cx="422" cy="496" r="2" fill="#fff" opacity="0.55"/>
<g opacity="0.9"><rect x="254" y="0" width="4" height="256" fill="#46d4d8" opacity="0.10" transform="rotate(0 256 256)"/><rect x="254" y="0" width="4" height="256" fill="#46d4d8" opacity="0.10" transform="rotate(15 256 256)"/><rect x="254" y="0" width="4" height="256" fill="#46d4d8" opacity="0.10" transform="rotate(30 256 256)"/><rect x="254" y="0" width="4" height="256" fill="#46d4d8" opacity="0.10" transform="rotate(45 256 256)"/><rect x="254" y="0" width="4" height="256" fill="#46d4d8" opacity="0.10" transform="rotate(60 256 256)"/><rect x="254" y="0" width="4" height="256" fill="#46d4d8" opacity="0.10" transform="rotate(75 256 256)"/><rect x="254" y="0" width="4" height="256" fill="#46d4d8" opacity="0.10" transform="rotate(90 256 256)"/><rect x="254" y="0" width="4" height="256" fill="#46d4d8" opacity="0.10" transform="rotate(105 256 256)"/><rect x="254" y="0" width="4" height="256" fill="#46d4d8" opacity="0.10" transform="rotate(120 256 256)"/><rect x="254" y="0" width="4" height="256" fill="#46d4d8" opacity="0.10" transform="rotate(135 256 256)"/><rect x="254" y="0" width="4" height="256" fill="#46d4d8" opacity="0.10" transform="rotate(150 256 256)"/><rect x="254" y="0" width="4" height="256" fill="#46d4d8" opacity="0.10" transform="rotate(165 256 256)"/><rect x="254" y="0" width="4" height="256" fill="#46d4d8" opacity="0.10" transform="rotate(180 256 256)"/><rect x="254" y="0" width="4" height="256" fill="#46d4d8" opacity="0.10" transform="rotate(195 256 256)"/><rect x="254" y="0" width="4" height="256" fill="#46d4d8" opacity="0.10" transform="rotate(210 256 256)"/><rect x="254" y="0" width="4" height="256" fill="#46d4d8" opacity="0.10" transform="rotate(225 256 256)"/><rect x="254" y="0" width="4" height="256" fill="#46d4d8" opacity="0.10" transform="rotate(240 256 256)"/><rect x="254" y="0" width="4" height="256" fill="#46d4d8" opacity="0.10" transform="rotate(255 256 256)"/><rect x="254" y="0" width="4" height="256" fill="#46d4d8" opacity="0.10" transform="rotate(270 256 256)"/><rect x="254" y="0" width="4" height="256" fill="#46d4d8" opacity="0.10" transform="rotate(285 256 256)"/><rect x="254" y="0" width="4" height="256" fill="#46d4d8" opacity="0.10" transform="rotate(300 256 256)"/><rect x="254" y="0" width="4" height="256" fill="#46d4d8" opacity="0.10" transform="rotate(315 256 256)"/><rect x="254" y="0" width="4" height="256" fill="#46d4d8" opacity="0.10" transform="rotate(330 256 256)"/><rect x="254" y="0" width="4" height="256" fill="#46d4d8" opacity="0.10" transform="rotate(345 256 256)"/></g>
<circle cx="256" cy="244" r="150" fill="url(#glow)"/>
<g fill="none" stroke="#46d4d8" opacity="0.55">
<circle cx="256" cy="244" r="150" stroke-width="2"/>
<circle cx="256" cy="244" r="122" stroke-width="1" stroke-dasharray="6 8"/>
<circle cx="256" cy="244" r="180" stroke-width="1" opacity="0.3"/>
</g>
<rect x="419.0" y="251.0" width="10" height="10" fill="#46d4d8" opacity="0.5" transform="rotate(0 424.0 256.0)"/><rect x="402.4" y="323.9" width="10" height="10" fill="#46d4d8" opacity="0.5" transform="rotate(25 407.4 328.9)"/><rect x="355.7" y="382.3" width="10" height="10" fill="#46d4d8" opacity="0.5" transform="rotate(50 360.7 387.3)"/><rect x="288.4" y="414.8" width="10" height="10" fill="#46d4d8" opacity="0.5" transform="rotate(75 293.4 419.8)"/><rect x="213.6" y="414.8" width="10" height="10" fill="#46d4d8" opacity="0.5" transform="rotate(100 218.6 419.8)"/><rect x="146.3" y="382.3" width="10" height="10" fill="#46d4d8" opacity="0.5" transform="rotate(125 151.3 387.3)"/><rect x="99.6" y="323.9" width="10" height="10" fill="#46d4d8" opacity="0.5" transform="rotate(150 104.6 328.9)"/><rect x="83.0" y="251.0" width="10" height="10" fill="#46d4d8" opacity="0.5" transform="rotate(175 88.0 256.0)"/><rect x="99.6" y="178.1" width="10" height="10" fill="#46d4d8" opacity="0.5" transform="rotate(200 104.6 183.1)"/><rect x="146.3" y="119.7" width="10" height="10" fill="#46d4d8" opacity="0.5" transform="rotate(225 151.3 124.7)"/><rect x="213.6" y="87.2" width="10" height="10" fill="#46d4d8" opacity="0.5" transform="rotate(250 218.6 92.2)"/><rect x="288.4" y="87.2" width="10" height="10" fill="#46d4d8" opacity="0.5" transform="rotate(275 293.4 92.2)"/><rect x="355.7" y="119.7" width="10" height="10" fill="#46d4d8" opacity="0.5" transform="rotate(300 360.7 124.7)"/><rect x="402.4" y="178.1" width="10" height="10" fill="#46d4d8" opacity="0.5" transform="rotate(325 407.4 183.1)"/>
<path d="M256 96 L300 130 L300 250 Q256 300 256 300 Q256 300 212 250 L212 130 Z" fill="url(#crest)" opacity="0.18"/>
<text x="256" y="300" font-size="200" text-anchor="middle" filter="url(#b)" opacity="0.55">⏳</text>
<text x="256" y="300" font-size="190" text-anchor="middle">⏳</text>
<rect x="0" y="0" width="512" height="512" fill="url(#bg)" opacity="0" />
<rect x="0" y="430" width="512" height="82" fill="#000" opacity="0.28"/>
<text x="256" y="476" font-family="serif" font-size="34" font-weight="700" text-anchor="middle" fill="#fff" opacity="0.92">刻詠みの賢者</text>
<rect x="6" y="6" width="500" height="500" fill="none" stroke="#46d4d8" stroke-width="3" opacity="0.5" rx="10"/>
</svg>