<svg xmlns="http://www.w3.org/2000/svg" viewBox="0 0 512 512" width="512" height="512">
<defs>
<radialGradient id="bg" cx="50%" cy="38%" r="75%">
<stop offset="0%" stop-color="#0c1a2e"/><stop offset="55%" stop-color="#10243a"/><stop offset="100%" stop-color="#0a1018"/>
</radialGradient>
<radialGradient id="glow" cx="50%" cy="44%" r="42%">
<stop offset="0%" stop-color="#9ad8f0" stop-opacity="0.95"/><stop offset="45%" stop-color="#9ad8f0" stop-opacity="0.32"/><stop offset="100%" stop-color="#9ad8f0" stop-opacity="0"/>
</radialGradient>
<linearGradient id="crest" x1="0" y1="0" x2="0" y2="1">
<stop offset="0%" stop-color="#fff" stop-opacity="0.9"/><stop offset="100%" stop-color="#9ad8f0" stop-opacity="0.7"/>
</linearGradient>
<filter id="b"><feGaussianBlur stdDeviation="6"/></filter>
</defs>
<rect width="512" height="512" fill="url(#bg)"/>
<circle cx="346" cy="97" r="1.5" fill="#fff" opacity="0.55"/><circle cx="287" cy="448" r="1.5" fill="#fff" opacity="0.55"/><circle cx="152" cy="72" r="1" fill="#fff" opacity="0.25"/><circle cx="399" cy="245" r="2" fill="#fff" opacity="0.7"/><circle cx="196" cy="163" r="1" fill="#fff" opacity="0.4"/><circle cx="422" cy="340" r="1" fill="#fff" opacity="0.7"/><circle cx="118" cy="275" r="1.5" fill="#fff" opacity="0.4"/><circle cx="168" cy="162" r="1" fill="#fff" opacity="0.7"/><circle cx="427" cy="354" r="1" fill="#fff" opacity="0.55"/><circle cx="149" cy="331" r="2" fill="#fff" opacity="0.25"/><circle cx="336" cy="50" r="1.5" fill="#fff" opacity="0.25"/><circle cx="470" cy="413" r="1" fill="#fff" opacity="0.55"/><circle cx="314" cy="346" r="1" fill="#fff" opacity="0.4"/><circle cx="228" cy="37" r="1" fill="#fff" opacity="0.7"/><circle cx="187" cy="244" r="1" fill="#fff" opacity="0.4"/><circle cx="189" cy="25" r="2" fill="#fff" opacity="0.25"/><circle cx="120" cy="161" r="1" fill="#fff" opacity="0.55"/><circle cx="49" cy="386" r="2" fill="#fff" opacity="0.55"/><circle cx="167" cy="492" r="2" fill="#fff" opacity="0.25"/><circle cx="278" cy="261" r="1" fill="#fff" opacity="0.25"/><circle cx="452" cy="463" r="2" fill="#fff" opacity="0.25"/><circle cx="376" cy="454" r="1" fill="#fff" opacity="0.7"/><circle cx="272" cy="166" r="2" fill="#fff" opacity="0.55"/><circle cx="324" cy="395" r="1" fill="#fff" opacity="0.4"/><circle cx="375" cy="433" r="1" fill="#fff" opacity="0.25"/><circle cx="14" cy="460" r="1" fill="#fff" opacity="0.25"/><circle cx="361" cy="257" r="2" fill="#fff" opacity="0.4"/><circle cx="280" cy="415" r="2" fill="#fff" opacity="0.7"/><circle cx="61" cy="150" r="1" fill="#fff" opacity="0.4"/><circle cx="94" cy="288" r="1" fill="#fff" opacity="0.55"/><circle cx="213" cy="471" r="1.5" fill="#fff" opacity="0.4"/><circle cx="196" cy="215" r="1" fill="#fff" opacity="0.55"/><circle cx="298" cy="236" r="1.5" fill="#fff" opacity="0.4"/><circle cx="429" cy="469" r="1" fill="#fff" opacity="0.55"/><circle cx="449" cy="225" r="1.5" fill="#fff" opacity="0.55"/><circle cx="96" cy="352" r="2" fill="#fff" opacity="0.55"/><circle cx="138" cy="298" r="1" fill="#fff" opacity="0.55"/><circle cx="132" cy="308" r="1.5" fill="#fff" opacity="0.4"/><circle cx="413" cy="257" r="1.5" fill="#fff" opacity="0.25"/><circle cx="410" cy="448" r="1.5" fill="#fff" opacity="0.4"/><circle cx="15" cy="496" r="1" fill="#fff" opacity="0.55"/><circle cx="209" cy="157" r="1" fill="#fff" opacity="0.7"/><circle cx="76" cy="326" r="1.5" fill="#fff" opacity="0.4"/><circle cx="65" cy="125" r="2" fill="#fff" opacity="0.25"/><circle cx="497" cy="493" r="2" fill="#fff" opacity="0.25"/><circle cx="463" cy="322" r="2" fill="#fff" opacity="0.25"/>
<g opacity="0.9"><rect x="254" y="0" width="4" height="256" fill="#9ad8f0" opacity="0.10" transform="rotate(0 256 256)"/><rect x="254" y="0" width="4" height="256" fill="#9ad8f0" opacity="0.10" transform="rotate(15 256 256)"/><rect x="254" y="0" width="4" height="256" fill="#9ad8f0" opacity="0.10" transform="rotate(30 256 256)"/><rect x="254" y="0" width="4" height="256" fill="#9ad8f0" opacity="0.10" transform="rotate(45 256 256)"/><rect x="254" y="0" width="4" height="256" fill="#9ad8f0" opacity="0.10" transform="rotate(60 256 256)"/><rect x="254" y="0" width="4" height="256" fill="#9ad8f0" opacity="0.10" transform="rotate(75 256 256)"/><rect x="254" y="0" width="4" height="256" fill="#9ad8f0" opacity="0.10" transform="rotate(90 256 256)"/><rect x="254" y="0" width="4" height="256" fill="#9ad8f0" opacity="0.10" transform="rotate(105 256 256)"/><rect x="254" y="0" width="4" height="256" fill="#9ad8f0" opacity="0.10" transform="rotate(120 256 256)"/><rect x="254" y="0" width="4" height="256" fill="#9ad8f0" opacity="0.10" transform="rotate(135 256 256)"/><rect x="254" y="0" width="4" height="256" fill="#9ad8f0" opacity="0.10" transform="rotate(150 256 256)"/><rect x="254" y="0" width="4" height="256" fill="#9ad8f0" opacity="0.10" transform="rotate(165 256 256)"/><rect x="254" y="0" width="4" height="256" fill="#9ad8f0" opacity="0.10" transform="rotate(180 256 256)"/><rect x="254" y="0" width="4" height="256" fill="#9ad8f0" opacity="0.10" transform="rotate(195 256 256)"/><rect x="254" y="0" width="4" height="256" fill="#9ad8f0" opacity="0.10" transform="rotate(210 256 256)"/><rect x="254" y="0" width="4" height="256" fill="#9ad8f0" opacity="0.10" transform="rotate(225 256 256)"/><rect x="254" y="0" width="4" height="256" fill="#9ad8f0" opacity="0.10" transform="rotate(240 256 256)"/><rect x="254" y="0" width="4" height="256" fill="#9ad8f0" opacity="0.10" transform="rotate(255 256 256)"/><rect x="254" y="0" width="4" height="256" fill="#9ad8f0" opacity="0.10" transform="rotate(270 256 256)"/><rect x="254" y="0" width="4" height="256" fill="#9ad8f0" opacity="0.10" transform="rotate(285 256 256)"/><rect x="254" y="0" width="4" height="256" fill="#9ad8f0" opacity="0.10" transform="rotate(300 256 256)"/><rect x="254" y="0" width="4" height="256" fill="#9ad8f0" opacity="0.10" transform="rotate(315 256 256)"/><rect x="254" y="0" width="4" height="256" fill="#9ad8f0" opacity="0.10" transform="rotate(330 256 256)"/><rect x="254" y="0" width="4" height="256" fill="#9ad8f0" opacity="0.10" transform="rotate(345 256 256)"/></g>
<circle cx="256" cy="244" r="150" fill="url(#glow)"/>
<g fill="none" stroke="#9ad8f0" opacity="0.55">
<circle cx="256" cy="244" r="150" stroke-width="2"/>
<circle cx="256" cy="244" r="122" stroke-width="1" stroke-dasharray="6 8"/>
<circle cx="256" cy="244" r="180" stroke-width="1" opacity="0.3"/>
</g>
<rect x="419.0" y="251.0" width="10" height="10" fill="#9ad8f0" opacity="0.5" transform="rotate(0 424.0 256.0)"/><rect x="402.4" y="323.9" width="10" height="10" fill="#9ad8f0" opacity="0.5" transform="rotate(25 407.4 328.9)"/><rect x="355.7" y="382.3" width="10" height="10" fill="#9ad8f0" opacity="0.5" transform="rotate(50 360.7 387.3)"/><rect x="288.4" y="414.8" width="10" height="10" fill="#9ad8f0" opacity="0.5" transform="rotate(75 293.4 419.8)"/><rect x="213.6" y="414.8" width="10" height="10" fill="#9ad8f0" opacity="0.5" transform="rotate(100 218.6 419.8)"/><rect x="146.3" y="382.3" width="10" height="10" fill="#9ad8f0" opacity="0.5" transform="rotate(125 151.3 387.3)"/><rect x="99.6" y="323.9" width="10" height="10" fill="#9ad8f0" opacity="0.5" transform="rotate(150 104.6 328.9)"/><rect x="83.0" y="251.0" width="10" height="10" fill="#9ad8f0" opacity="0.5" transform="rotate(175 88.0 256.0)"/><rect x="99.6" y="178.1" width="10" height="10" fill="#9ad8f0" opacity="0.5" transform="rotate(200 104.6 183.1)"/><rect x="146.3" y="119.7" width="10" height="10" fill="#9ad8f0" opacity="0.5" transform="rotate(225 151.3 124.7)"/><rect x="213.6" y="87.2" width="10" height="10" fill="#9ad8f0" opacity="0.5" transform="rotate(250 218.6 92.2)"/><rect x="288.4" y="87.2" width="10" height="10" fill="#9ad8f0" opacity="0.5" transform="rotate(275 293.4 92.2)"/><rect x="355.7" y="119.7" width="10" height="10" fill="#9ad8f0" opacity="0.5" transform="rotate(300 360.7 124.7)"/><rect x="402.4" y="178.1" width="10" height="10" fill="#9ad8f0" opacity="0.5" transform="rotate(325 407.4 183.1)"/>
<path d="M256 96 L300 130 L300 250 Q256 300 256 300 Q256 300 212 250 L212 130 Z" fill="url(#crest)" opacity="0.18"/>
<text x="256" y="300" font-size="200" text-anchor="middle" filter="url(#b)" opacity="0.55">👸</text>
<text x="256" y="300" font-size="190" text-anchor="middle">👸</text>
<rect x="0" y="0" width="512" height="512" fill="url(#bg)" opacity="0" />
<rect x="0" y="430" width="512" height="82" fill="#000" opacity="0.28"/>
<text x="256" y="476" font-family="serif" font-size="34" font-weight="700" text-anchor="middle" fill="#fff" opacity="0.92">天空の女神</text>
<rect x="6" y="6" width="500" height="500" fill="none" stroke="#9ad8f0" stroke-width="3" opacity="0.5" rx="10"/>
</svg>